<svg width="18" height="18" viewBox="0 0 18 18" fill="none" xmlns="http://www.w3.org/2000/svg">
<path d="M13.5 14.145H12.93C12.33 14.145 11.76 14.3775 11.34 14.7975L10.0575 16.065C9.47248 16.6425 8.52001 16.6425 7.93501 16.065L6.6525 14.7975C6.2325 14.3775 5.655 14.145 5.0625 14.145H4.5C3.255 14.145 2.25 13.1475 2.25 11.9175V3.7275C2.25 2.4975 3.255 1.5 4.5 1.5H13.5C14.745 1.5 15.75 2.4975 15.75 3.7275V11.91C15.75 13.14 14.745 14.145 13.5 14.145Z" stroke="#BDB7B6" stroke-width="1.5" stroke-miterlimit="10" stroke-linecap="round" stroke-linejoin="round"/>
<path d="M9.05243 6.71251C9.02243 6.71251 8.97741 6.71251 8.93991 6.71251C8.15241 6.68251 7.52991 6.04501 7.52991 5.25001C7.52991 4.44001 8.18242 3.78751 8.99242 3.78751C9.80242 3.78751 10.4549 4.44751 10.4549 5.25001C10.4624 6.04501 9.83993 6.69001 9.05243 6.71251Z" stroke="#BDB7B6" stroke-width="1.5" stroke-linecap="round" stroke-linejoin="round"/>
<path d="M6.93746 8.97C5.93996 9.6375 5.93996 10.725 6.93746 11.3925C8.06996 12.15 9.92996 12.15 11.0625 11.3925C12.06 10.725 12.06 9.6375 11.0625 8.97C9.92996 8.22 8.07746 8.22 6.93746 8.97Z" stroke="#BDB7B6" stroke-width="1.5" stroke-linecap="round" stroke-linejoin="round"/>
</svg>
