<svg width="137" height="105" viewBox="0 0 137 105" fill="none" xmlns="http://www.w3.org/2000/svg">
<rect x="0.5" y="0.5" width="136" height="104" stroke="#CBCBCB" stroke-dasharray="8 8"/>
<rect x="40.1666" y="10" width="56.6667" height="54" rx="27" fill="#0067AC"/>
<path d="M57.8333 27.6667H61.8333L64.5 25H72.5L75.1666 27.6667H79.1666C79.8739 27.6667 80.5521 27.9476 81.0522 28.4477C81.5523 28.9478 81.8333 29.6261 81.8333 30.3333V46.3333C81.8333 47.0406 81.5523 47.7189 81.0522 48.219C80.5521 48.719 79.8739 49 79.1666 49H57.8333C57.126 49 56.4478 48.719 55.9477 48.219C55.4476 47.7189 55.1666 47.0406 55.1666 46.3333V30.3333C55.1666 29.6261 55.4476 28.9478 55.9477 28.4477C56.4478 27.9476 57.126 27.6667 57.8333 27.6667ZM68.5 31.6667C66.7318 31.6667 65.0362 32.369 63.7859 33.6193C62.5357 34.8695 61.8333 36.5652 61.8333 38.3333C61.8333 40.1014 62.5357 41.7971 63.7859 43.0474C65.0362 44.2976 66.7318 45 68.5 45C70.2681 45 71.9638 44.2976 73.214 43.0474C74.4642 41.7971 75.1666 40.1014 75.1666 38.3333C75.1666 36.5652 74.4642 34.8695 73.214 33.6193C71.9638 32.369 70.2681 31.6667 68.5 31.6667ZM68.5 34.3333C69.5608 34.3333 70.5782 34.7548 71.3284 35.5049C72.0785 36.2551 72.5 37.2725 72.5 38.3333C72.5 39.3942 72.0785 40.4116 71.3284 41.1618C70.5782 41.9119 69.5608 42.3333 68.5 42.3333C67.4391 42.3333 66.4217 41.9119 65.6715 41.1618C64.9214 40.4116 64.5 39.3942 64.5 38.3333C64.5 37.2725 64.9214 36.2551 65.6715 35.5049C66.4217 34.7548 67.4391 34.3333 68.5 34.3333Z" fill="#FEFEFE"/>
<path d="M8.16 84.03V88.44C8.16 89.06 8.31 89.52 8.61 89.82C8.91667 90.12 9.34 90.27 9.88 90.27C10.4133 90.27 10.83 90.12 11.13 89.82C11.4367 89.52 11.59 89.06 11.59 88.44V84.03H12.5V88.43C12.5 89.01 12.3833 89.5 12.15 89.9C11.9167 90.2933 11.6 90.5867 11.2 90.78C10.8067 90.9733 10.3633 91.07 9.87 91.07C9.37667 91.07 8.93 90.9733 8.53 90.78C8.13667 90.5867 7.82333 90.2933 7.59 89.9C7.36333 89.5 7.25 89.01 7.25 88.43V84.03H8.16ZM14.928 86.53C15.108 86.2167 15.3747 85.9567 15.728 85.75C16.088 85.5367 16.5047 85.43 16.978 85.43C17.4647 85.43 17.9047 85.5467 18.298 85.78C18.698 86.0133 19.0114 86.3433 19.238 86.77C19.4647 87.19 19.578 87.68 19.578 88.24C19.578 88.7933 19.4647 89.2867 19.238 89.72C19.0114 90.1533 18.698 90.49 18.298 90.73C17.9047 90.97 17.4647 91.09 16.978 91.09C16.5114 91.09 16.098 90.9867 15.738 90.78C15.3847 90.5667 15.1147 90.3033 14.928 89.99V93.6H14.018V85.52H14.928V86.53ZM18.648 88.24C18.648 87.8267 18.5647 87.4667 18.398 87.16C18.2314 86.8533 18.0047 86.62 17.718 86.46C17.438 86.3 17.128 86.22 16.788 86.22C16.4547 86.22 16.1447 86.3033 15.858 86.47C15.578 86.63 15.3514 86.8667 15.178 87.18C15.0114 87.4867 14.928 87.8433 14.928 88.25C14.928 88.6633 15.0114 89.0267 15.178 89.34C15.3514 89.6467 15.578 89.8833 15.858 90.05C16.1447 90.21 16.4547 90.29 16.788 90.29C17.128 90.29 17.438 90.21 17.718 90.05C18.0047 89.8833 18.2314 89.6467 18.398 89.34C18.5647 89.0267 18.648 88.66 18.648 88.24ZM21.6859 83.6V91H20.7759V83.6H21.6859ZM25.6268 91.09C25.1135 91.09 24.6468 90.9733 24.2268 90.74C23.8135 90.5067 23.4868 90.1767 23.2468 89.75C23.0135 89.3167 22.8968 88.8167 22.8968 88.25C22.8968 87.69 23.0168 87.1967 23.2568 86.77C23.5035 86.3367 23.8368 86.0067 24.2568 85.78C24.6768 85.5467 25.1468 85.43 25.6668 85.43C26.1868 85.43 26.6568 85.5467 27.0768 85.78C27.4968 86.0067 27.8268 86.3333 28.0668 86.76C28.3135 87.1867 28.4368 87.6833 28.4368 88.25C28.4368 88.8167 28.3101 89.3167 28.0568 89.75C27.8101 90.1767 27.4735 90.5067 27.0468 90.74C26.6201 90.9733 26.1468 91.09 25.6268 91.09ZM25.6268 90.29C25.9535 90.29 26.2601 90.2133 26.5468 90.06C26.8335 89.9067 27.0635 89.6767 27.2368 89.37C27.4168 89.0633 27.5068 88.69 27.5068 88.25C27.5068 87.81 27.4201 87.4367 27.2468 87.13C27.0735 86.8233 26.8468 86.5967 26.5668 86.45C26.2868 86.2967 25.9835 86.22 25.6568 86.22C25.3235 86.22 25.0168 86.2967 24.7368 86.45C24.4635 86.5967 24.2435 86.8233 24.0768 87.13C23.9101 87.4367 23.8268 87.81 23.8268 88.25C23.8268 88.6967 23.9068 89.0733 24.0668 89.38C24.2335 89.6867 24.4535 89.9167 24.7268 90.07C25.0001 90.2167 25.3001 90.29 25.6268 90.29ZM29.2933 88.24C29.2933 87.68 29.4066 87.19 29.6333 86.77C29.8599 86.3433 30.1699 86.0133 30.5633 85.78C30.9633 85.5467 31.4066 85.43 31.8933 85.43C32.3733 85.43 32.7899 85.5333 33.1433 85.74C33.4966 85.9467 33.7599 86.2067 33.9333 86.52V85.52H34.8533V91H33.9333V89.98C33.7533 90.3 33.4833 90.5667 33.1233 90.78C32.7699 90.9867 32.3566 91.09 31.8833 91.09C31.3966 91.09 30.9566 90.97 30.5633 90.73C30.1699 90.49 29.8599 90.1533 29.6333 89.72C29.4066 89.2867 29.2933 88.7933 29.2933 88.24ZM33.9333 88.25C33.9333 87.8367 33.8499 87.4767 33.6833 87.17C33.5166 86.8633 33.2899 86.63 33.0033 86.47C32.7233 86.3033 32.4133 86.22 32.0733 86.22C31.7333 86.22 31.4233 86.3 31.1433 86.46C30.8633 86.62 30.6399 86.8533 30.4733 87.16C30.3066 87.4667 30.2233 87.8267 30.2233 88.24C30.2233 88.66 30.3066 89.0267 30.4733 89.34C30.6399 89.6467 30.8633 89.8833 31.1433 90.05C31.4233 90.21 31.7333 90.29 32.0733 90.29C32.4133 90.29 32.7233 90.21 33.0033 90.05C33.2899 89.8833 33.5166 89.6467 33.6833 89.34C33.8499 89.0267 33.9333 88.6633 33.9333 88.25ZM36.0511 88.24C36.0511 87.68 36.1644 87.19 36.3911 86.77C36.6178 86.3433 36.9278 86.0133 37.3211 85.78C37.7211 85.5467 38.1678 85.43 38.6611 85.43C39.0878 85.43 39.4844 85.53 39.8511 85.73C40.2178 85.9233 40.4978 86.18 40.6911 86.5V83.6H41.6111V91H40.6911V89.97C40.5111 90.2967 40.2444 90.5667 39.8911 90.78C39.5378 90.9867 39.1244 91.09 38.6511 91.09C38.1644 91.09 37.7211 90.97 37.3211 90.73C36.9278 90.49 36.6178 90.1533 36.3911 89.72C36.1644 89.2867 36.0511 88.7933 36.0511 88.24ZM40.6911 88.25C40.6911 87.8367 40.6078 87.4767 40.4411 87.17C40.2744 86.8633 40.0478 86.63 39.7611 86.47C39.4811 86.3033 39.1711 86.22 38.8311 86.22C38.4911 86.22 38.1811 86.3 37.9011 86.46C37.6211 86.62 37.3978 86.8533 37.2311 87.16C37.0644 87.4667 36.9811 87.8267 36.9811 88.24C36.9811 88.66 37.0644 89.0267 37.2311 89.34C37.3978 89.6467 37.6211 89.8833 37.9011 90.05C38.1811 90.21 38.4911 90.29 38.8311 90.29C39.1711 90.29 39.4811 90.21 39.7611 90.05C40.0478 89.8833 40.2744 89.6467 40.4411 89.34C40.6078 89.0267 40.6911 88.6633 40.6911 88.25ZM48.0449 86.27H46.8949V91H45.9849V86.27H45.2749V85.52H45.9849V85.13C45.9849 84.5167 46.1416 84.07 46.4549 83.79C46.7749 83.5033 47.2849 83.36 47.9849 83.36V84.12C47.5849 84.12 47.3016 84.2 47.1349 84.36C46.9749 84.5133 46.8949 84.77 46.8949 85.13V85.52H48.0449V86.27ZM51.4959 91.09C50.9826 91.09 50.5159 90.9733 50.0959 90.74C49.6826 90.5067 49.3559 90.1767 49.1159 89.75C48.8826 89.3167 48.7659 88.8167 48.7659 88.25C48.7659 87.69 48.8859 87.1967 49.1259 86.77C49.3726 86.3367 49.7059 86.0067 50.1259 85.78C50.5459 85.5467 51.0159 85.43 51.5359 85.43C52.0559 85.43 52.5259 85.5467 52.9459 85.78C53.3659 86.0067 53.6959 86.3333 53.9359 86.76C54.1826 87.1867 54.3059 87.6833 54.3059 88.25C54.3059 88.8167 54.1793 89.3167 53.9259 89.75C53.6793 90.1767 53.3426 90.5067 52.9159 90.74C52.4893 90.9733 52.0159 91.09 51.4959 91.09ZM51.4959 90.29C51.8226 90.29 52.1293 90.2133 52.4159 90.06C52.7026 89.9067 52.9326 89.6767 53.1059 89.37C53.2859 89.0633 53.3759 88.69 53.3759 88.25C53.3759 87.81 53.2893 87.4367 53.1159 87.13C52.9426 86.8233 52.7159 86.5967 52.4359 86.45C52.1559 86.2967 51.8526 86.22 51.5259 86.22C51.1926 86.22 50.8859 86.2967 50.6059 86.45C50.3326 86.5967 50.1126 86.8233 49.9459 87.13C49.7793 87.4367 49.6959 87.81 49.6959 88.25C49.6959 88.6967 49.7759 89.0733 49.9359 89.38C50.1026 89.6867 50.3226 89.9167 50.5959 90.07C50.8693 90.2167 51.1693 90.29 51.4959 90.29ZM56.6124 86.27V89.5C56.6124 89.7667 56.6691 89.9567 56.7824 90.07C56.8958 90.1767 57.0924 90.23 57.3724 90.23H58.0424V91H57.2224C56.7158 91 56.3358 90.8833 56.0824 90.65C55.8291 90.4167 55.7024 90.0333 55.7024 89.5V86.27H54.9924V85.52H55.7024V84.14H56.6124V85.52H58.0424V86.27H56.6124ZM61.535 91.09C61.0217 91.09 60.555 90.9733 60.135 90.74C59.7217 90.5067 59.395 90.1767 59.155 89.75C58.9217 89.3167 58.805 88.8167 58.805 88.25C58.805 87.69 58.925 87.1967 59.165 86.77C59.4117 86.3367 59.745 86.0067 60.165 85.78C60.585 85.5467 61.055 85.43 61.575 85.43C62.095 85.43 62.565 85.5467 62.985 85.78C63.405 86.0067 63.735 86.3333 63.975 86.76C64.2217 87.1867 64.345 87.6833 64.345 88.25C64.345 88.8167 64.2183 89.3167 63.965 89.75C63.7183 90.1767 63.3817 90.5067 62.955 90.74C62.5283 90.9733 62.055 91.09 61.535 91.09ZM61.535 90.29C61.8617 90.29 62.1683 90.2133 62.455 90.06C62.7417 89.9067 62.9717 89.6767 63.145 89.37C63.325 89.0633 63.415 88.69 63.415 88.25C63.415 87.81 63.3283 87.4367 63.155 87.13C62.9817 86.8233 62.755 86.5967 62.475 86.45C62.195 86.2967 61.8917 86.22 61.565 86.22C61.2317 86.22 60.925 86.2967 60.645 86.45C60.3717 86.5967 60.1517 86.8233 59.985 87.13C59.8183 87.4367 59.735 87.81 59.735 88.25C59.735 88.6967 59.815 89.0733 59.975 89.38C60.1417 89.6867 60.3617 89.9167 60.635 90.07C60.9083 90.2167 61.2083 90.29 61.535 90.29ZM67.8675 88.24C67.8675 87.68 67.9808 87.19 68.2075 86.77C68.4342 86.3433 68.7442 86.0133 69.1375 85.78C69.5375 85.5467 69.9842 85.43 70.4775 85.43C70.9042 85.43 71.3008 85.53 71.6675 85.73C72.0342 85.9233 72.3142 86.18 72.5075 86.5V83.6H73.4275V91H72.5075V89.97C72.3275 90.2967 72.0608 90.5667 71.7075 90.78C71.3542 90.9867 70.9408 91.09 70.4675 91.09C69.9808 91.09 69.5375 90.97 69.1375 90.73C68.7442 90.49 68.4342 90.1533 68.2075 89.72C67.9808 89.2867 67.8675 88.7933 67.8675 88.24ZM72.5075 88.25C72.5075 87.8367 72.4242 87.4767 72.2575 87.17C72.0908 86.8633 71.8642 86.63 71.5775 86.47C71.2975 86.3033 70.9875 86.22 70.6475 86.22C70.3075 86.22 69.9975 86.3 69.7175 86.46C69.4375 86.62 69.2142 86.8533 69.0475 87.16C68.8808 87.4667 68.7975 87.8267 68.7975 88.24C68.7975 88.66 68.8808 89.0267 69.0475 89.34C69.2142 89.6467 69.4375 89.8833 69.7175 90.05C69.9975 90.21 70.3075 90.29 70.6475 90.29C70.9875 90.29 71.2975 90.21 71.5775 90.05C71.8642 89.8833 72.0908 89.6467 72.2575 89.34C72.4242 89.0267 72.5075 88.6633 72.5075 88.25ZM77.3553 91.09C76.842 91.09 76.3753 90.9733 75.9553 90.74C75.542 90.5067 75.2153 90.1767 74.9753 89.75C74.742 89.3167 74.6253 88.8167 74.6253 88.25C74.6253 87.69 74.7453 87.1967 74.9853 86.77C75.232 86.3367 75.5653 86.0067 75.9853 85.78C76.4053 85.5467 76.8753 85.43 77.3953 85.43C77.9153 85.43 78.3853 85.5467 78.8053 85.78C79.2253 86.0067 79.5553 86.3333 79.7953 86.76C80.042 87.1867 80.1653 87.6833 80.1653 88.25C80.1653 88.8167 80.0386 89.3167 79.7853 89.75C79.5386 90.1767 79.202 90.5067 78.7753 90.74C78.3486 90.9733 77.8753 91.09 77.3553 91.09ZM77.3553 90.29C77.682 90.29 77.9886 90.2133 78.2753 90.06C78.562 89.9067 78.792 89.6767 78.9653 89.37C79.1453 89.0633 79.2353 88.69 79.2353 88.25C79.2353 87.81 79.1486 87.4367 78.9753 87.13C78.802 86.8233 78.5753 86.5967 78.2953 86.45C78.0153 86.2967 77.712 86.22 77.3853 86.22C77.052 86.22 76.7453 86.2967 76.4653 86.45C76.192 86.5967 75.972 86.8233 75.8053 87.13C75.6386 87.4367 75.5553 87.81 75.5553 88.25C75.5553 88.6967 75.6353 89.0733 75.7953 89.38C75.962 89.6867 76.182 89.9167 76.4553 90.07C76.7286 90.2167 77.0286 90.29 77.3553 90.29ZM83.3018 91.09C82.8818 91.09 82.5051 91.02 82.1718 90.88C81.8385 90.7333 81.5751 90.5333 81.3818 90.28C81.1885 90.02 81.0818 89.7233 81.0618 89.39H82.0018C82.0285 89.6633 82.1551 89.8867 82.3818 90.06C82.6151 90.2333 82.9185 90.32 83.2918 90.32C83.6385 90.32 83.9118 90.2433 84.1118 90.09C84.3118 89.9367 84.4118 89.7433 84.4118 89.51C84.4118 89.27 84.3051 89.0933 84.0918 88.98C83.8785 88.86 83.5485 88.7433 83.1018 88.63C82.6951 88.5233 82.3618 88.4167 82.1018 88.31C81.8485 88.1967 81.6285 88.0333 81.4418 87.82C81.2618 87.6 81.1718 87.3133 81.1718 86.96C81.1718 86.68 81.2551 86.4233 81.4218 86.19C81.5885 85.9567 81.8251 85.7733 82.1318 85.64C82.4385 85.5 82.7885 85.43 83.1818 85.43C83.7885 85.43 84.2785 85.5833 84.6518 85.89C85.0251 86.1967 85.2251 86.6167 85.2518 87.15H84.3418C84.3218 86.8633 84.2051 86.6333 83.9918 86.46C83.7851 86.2867 83.5051 86.2 83.1518 86.2C82.8251 86.2 82.5651 86.27 82.3718 86.41C82.1785 86.55 82.0818 86.7333 82.0818 86.96C82.0818 87.14 82.1385 87.29 82.2518 87.41C82.3718 87.5233 82.5185 87.6167 82.6918 87.69C82.8718 87.7567 83.1185 87.8333 83.4318 87.92C83.8251 88.0267 84.1451 88.1333 84.3918 88.24C84.6385 88.34 84.8485 88.4933 85.0218 88.7C85.2018 88.9067 85.2951 89.1767 85.3018 89.51C85.3018 89.81 85.2185 90.08 85.0518 90.32C84.8851 90.56 84.6485 90.75 84.3418 90.89C84.0418 91.0233 83.6951 91.09 83.3018 91.09ZM91.5864 88.05C91.5864 88.2233 91.5764 88.4067 91.5564 88.6H87.1764C87.2097 89.14 87.3931 89.5633 87.7264 89.87C88.0664 90.17 88.4764 90.32 88.9564 90.32C89.3497 90.32 89.6764 90.23 89.9364 90.05C90.2031 89.8633 90.3897 89.6167 90.4964 89.31H91.4764C91.3297 89.8367 91.0364 90.2667 90.5964 90.6C90.1564 90.9267 89.6097 91.09 88.9564 91.09C88.4364 91.09 87.9697 90.9733 87.5564 90.74C87.1497 90.5067 86.8297 90.1767 86.5964 89.75C86.3631 89.3167 86.2464 88.8167 86.2464 88.25C86.2464 87.6833 86.3597 87.1867 86.5864 86.76C86.8131 86.3333 87.1297 86.0067 87.5364 85.78C87.9497 85.5467 88.4231 85.43 88.9564 85.43C89.4764 85.43 89.9364 85.5433 90.3364 85.77C90.7364 85.9967 91.0431 86.31 91.2564 86.71C91.4764 87.1033 91.5864 87.55 91.5864 88.05ZM90.6464 87.86C90.6464 87.5133 90.5697 87.2167 90.4164 86.97C90.2631 86.7167 90.0531 86.5267 89.7864 86.4C89.5264 86.2667 89.2364 86.2 88.9164 86.2C88.4564 86.2 88.0631 86.3467 87.7364 86.64C87.4164 86.9333 87.2331 87.34 87.1864 87.86H90.6464ZM95.4576 85.42C96.1242 85.42 96.6642 85.6233 97.0776 86.03C97.4909 86.43 97.6976 87.01 97.6976 87.77V91H96.7976V87.9C96.7976 87.3533 96.6609 86.9367 96.3876 86.65C96.1142 86.3567 95.7409 86.21 95.2676 86.21C94.7876 86.21 94.4042 86.36 94.1176 86.66C93.8376 86.96 93.6976 87.3967 93.6976 87.97V91H92.7876V85.52H93.6976V86.3C93.8776 86.02 94.1209 85.8033 94.4276 85.65C94.7409 85.4967 95.0842 85.42 95.4576 85.42ZM101.51 88.24C101.51 87.68 101.623 87.19 101.85 86.77C102.077 86.3433 102.387 86.0133 102.78 85.78C103.18 85.5467 103.627 85.43 104.12 85.43C104.547 85.43 104.943 85.53 105.31 85.73C105.677 85.9233 105.957 86.18 106.15 86.5V83.6H107.07V91H106.15V89.97C105.97 90.2967 105.703 90.5667 105.35 90.78C104.997 90.9867 104.583 91.09 104.11 91.09C103.623 91.09 103.18 90.97 102.78 90.73C102.387 90.49 102.077 90.1533 101.85 89.72C101.623 89.2867 101.51 88.7933 101.51 88.24ZM106.15 88.25C106.15 87.8367 106.067 87.4767 105.9 87.17C105.733 86.8633 105.507 86.63 105.22 86.47C104.94 86.3033 104.63 86.22 104.29 86.22C103.95 86.22 103.64 86.3 103.36 86.46C103.08 86.62 102.857 86.8533 102.69 87.16C102.523 87.4667 102.44 87.8267 102.44 88.24C102.44 88.66 102.523 89.0267 102.69 89.34C102.857 89.6467 103.08 89.8833 103.36 90.05C103.64 90.21 103.95 90.29 104.29 90.29C104.63 90.29 104.94 90.21 105.22 90.05C105.507 89.8833 105.733 89.6467 105.9 89.34C106.067 89.0267 106.15 88.6633 106.15 88.25ZM109.078 84.63C108.905 84.63 108.758 84.57 108.638 84.45C108.518 84.33 108.458 84.1833 108.458 84.01C108.458 83.8367 108.518 83.69 108.638 83.57C108.758 83.45 108.905 83.39 109.078 83.39C109.245 83.39 109.385 83.45 109.498 83.57C109.618 83.69 109.678 83.8367 109.678 84.01C109.678 84.1833 109.618 84.33 109.498 84.45C109.385 84.57 109.245 84.63 109.078 84.63ZM109.518 85.52V91H108.608V85.52H109.518ZM115.675 91.09C115.255 91.09 114.878 91.02 114.545 90.88C114.212 90.7333 113.948 90.5333 113.755 90.28C113.562 90.02 113.455 89.7233 113.435 89.39H114.375C114.402 89.6633 114.528 89.8867 114.755 90.06C114.988 90.2333 115.292 90.32 115.665 90.32C116.012 90.32 116.285 90.2433 116.485 90.09C116.685 89.9367 116.785 89.7433 116.785 89.51C116.785 89.27 116.678 89.0933 116.465 88.98C116.252 88.86 115.922 88.7433 115.475 88.63C115.068 88.5233 114.735 88.4167 114.475 88.31C114.222 88.1967 114.002 88.0333 113.815 87.82C113.635 87.6 113.545 87.3133 113.545 86.96C113.545 86.68 113.628 86.4233 113.795 86.19C113.962 85.9567 114.198 85.7733 114.505 85.64C114.812 85.5 115.162 85.43 115.555 85.43C116.162 85.43 116.652 85.5833 117.025 85.89C117.398 86.1967 117.598 86.6167 117.625 87.15H116.715C116.695 86.8633 116.578 86.6333 116.365 86.46C116.158 86.2867 115.878 86.2 115.525 86.2C115.198 86.2 114.938 86.27 114.745 86.41C114.552 86.55 114.455 86.7333 114.455 86.96C114.455 87.14 114.512 87.29 114.625 87.41C114.745 87.5233 114.892 87.6167 115.065 87.69C115.245 87.7567 115.492 87.8333 115.805 87.92C116.198 88.0267 116.518 88.1333 116.765 88.24C117.012 88.34 117.222 88.4933 117.395 88.7C117.575 88.9067 117.668 89.1767 117.675 89.51C117.675 89.81 117.592 90.08 117.425 90.32C117.258 90.56 117.022 90.75 116.715 90.89C116.415 91.0233 116.068 91.09 115.675 91.09ZM119.429 84.63C119.256 84.63 119.109 84.57 118.989 84.45C118.869 84.33 118.809 84.1833 118.809 84.01C118.809 83.8367 118.869 83.69 118.989 83.57C119.109 83.45 119.256 83.39 119.429 83.39C119.596 83.39 119.736 83.45 119.849 83.57C119.969 83.69 120.029 83.8367 120.029 84.01C120.029 84.1833 119.969 84.33 119.849 84.45C119.736 84.57 119.596 84.63 119.429 84.63ZM119.869 85.52V91H118.959V85.52H119.869ZM124.09 85.42C124.757 85.42 125.297 85.6233 125.71 86.03C126.124 86.43 126.33 87.01 126.33 87.77V91H125.43V87.9C125.43 87.3533 125.294 86.9367 125.02 86.65C124.747 86.3567 124.374 86.21 123.9 86.21C123.42 86.21 123.037 86.36 122.75 86.66C122.47 86.96 122.33 87.3967 122.33 87.97V91H121.42V85.52H122.33V86.3C122.51 86.02 122.754 85.8033 123.06 85.65C123.374 85.4967 123.717 85.42 124.09 85.42ZM128.287 84.63C128.114 84.63 127.967 84.57 127.847 84.45C127.727 84.33 127.667 84.1833 127.667 84.01C127.667 83.8367 127.727 83.69 127.847 83.57C127.967 83.45 128.114 83.39 128.287 83.39C128.454 83.39 128.594 83.45 128.707 83.57C128.827 83.69 128.887 83.8367 128.887 84.01C128.887 84.1833 128.827 84.33 128.707 84.45C128.594 84.57 128.454 84.63 128.287 84.63ZM128.727 85.52V91H127.817V85.52H128.727Z" fill="#AAAAAA"/>
</svg>
