<svg width="7" height="9" viewBox="0 0 7 9" fill="none" xmlns="http://www.w3.org/2000/svg">
<path fill-rule="evenodd" clip-rule="evenodd" d="M6.85533 6.6195L6.96156 7.1325C7.06224 7.57602 6.96284 8.04207 6.6905 8.40336C6.41817 8.76466 6.00137 8.98346 5.55392 9H1.44608C0.998633 8.98346 0.581826 8.76466 0.309495 8.40336C0.0371645 8.04207 -0.0622378 7.57602 0.0384369 7.1325L0.144674 6.6195C0.266862 5.92505 0.854083 5.41472 1.54789 5.40001H5.45211C6.14592 5.41472 6.73314 5.92505 6.85533 6.6195ZM5.55392 8.3205C5.7787 8.31785 5.99023 8.21198 6.12937 8.0325V8.037C6.3001 7.81929 6.36662 7.5356 6.31086 7.263L6.20462 6.75C6.14568 6.36983 5.83042 6.08516 5.45211 6.0705H1.54789C1.16958 6.08516 0.854324 6.36983 0.795379 6.75L0.689141 7.263C0.634764 7.53416 0.701209 7.81589 0.87063 8.0325C1.00977 8.21198 1.22131 8.31785 1.44608 8.3205H5.55392Z" fill="#BDB7B6"/>
<path fill-rule="evenodd" clip-rule="evenodd" d="M3.72132 4.5H3.27867C2.30078 4.5 1.50805 3.69411 1.50805 2.7V1.512C1.50686 1.11063 1.66319 0.725351 1.94237 0.441536C2.22155 0.157721 2.60054 -0.00119318 2.99537 6.74625e-06H4.00462C4.39944 -0.00119318 4.77843 0.157721 5.05762 0.441536C5.3368 0.725351 5.49312 1.11063 5.49194 1.512V2.7C5.49194 3.69411 4.69921 4.5 3.72132 4.5ZM2.99537 0.675006C2.54065 0.675006 2.17203 1.04974 2.17203 1.512V2.7C2.17203 3.32132 2.66749 3.825 3.27867 3.825H3.72132C4.3325 3.825 4.82796 3.32132 4.82796 2.7V1.512C4.82796 1.29002 4.74121 1.07712 4.58681 0.920157C4.4324 0.763189 4.22298 0.675006 4.00462 0.675006H2.99537Z" fill="#BDB7B6"/>
</svg>
